<svg width="512" height="512" viewBox="0 0 512 512" fill="none" xmlns="http://www.w3.org/2000/svg">
<path d="M175.69 1.80078H322.513L382.01 62.9817H109.476L175.69 1.80078Z" fill="#FF3D00"/>
<path d="M59.4191 86.6191H444.581V451.714C444.581 484.299 418.166 510.714 385.581 510.714H118.419C85.8342 510.714 59.4191 484.299 59.4191 451.714V86.6191Z" fill="#FF3D00"/>
<path d="M33 79.6387C33 65.8315 44.1929 54.6387 58 54.6387H446C459.807 54.6387 471 65.8316 471 79.6387V118.601H33V79.6387Z" fill="#FF3D00"/>
<rect x="194.522" y="175.609" width="223.867" height="51.4476" transform="rotate(45 194.522 175.609)" fill="#EDEDED"/>
<rect x="194.522" y="175.609" width="223.867" height="51.4476" transform="rotate(45 194.522 175.609)" fill="#EDEDED"/>
<rect x="158.143" y="333.908" width="223.867" height="51.4476" transform="rotate(-45 158.143 333.908)" fill="#EDEDED"/>
<rect x="158.143" y="333.908" width="223.867" height="51.4476" transform="rotate(-45 158.143 333.908)" fill="#EDEDED"/>
</svg>
